<svg width="22px" height="24px" viewBox="0 0 22 24" version="1.1" xmlns="http://www.w3.org/2000/svg" xmlns:xlink="http://www.w3.org/1999/xlink">
    <title>公告</title>
    <g id="-" stroke="none" stroke-width="1" fill="none" fill-rule="evenodd">
        <g id="工作台-公告详情" transform="translate(-1355.000000, -15.000000)" fill="#474E5F" fill-rule="nonzero">
            <g id="公告弹窗" transform="translate(1326.000000, 0.000000)">
                <g id="编组备份" transform="translate(29.000000, 15.000000)">
                    <path d="M20.592,18.6096 C19.4652,18.6096 18.21,16.7328 18.21,14.0388 L18.21,9.66359999 C18.21,5.85239998 15.3372,2.70479999 11.646,2.25839999 L11.646,0.900000002 C11.646,0.402943726 11.2430563,0 10.746,0 C10.2489437,0 9.84600001,0.402943726 9.84600001,0.900000002 L9.84600001,2.25839999 C6.15240001,2.70479999 3.28080001,5.85239998 3.28080001,9.66359999 L3.28080001,14.0388 C3.28080001,16.7316 2.02560002,18.6096 0.900000002,18.6096 C0.402943726,18.6096 0,19.0125437 0,19.5096 C0,20.0066563 0.402943726,20.4096 0.900000002,20.4096 L6.62400002,20.4096 C6.91507019,22.4648117 8.67148709,23.9942644 10.7472,24 C12.8496,24 14.5788,22.434 14.8692,20.4096 L20.5944,20.4096 C21.0914563,20.4089373 21.4938627,20.0054563 21.4932008,19.5084 C21.4925373,19.0113437 21.0890563,18.6089373 20.592,18.6096 Z M5.08080001,14.04 L5.08080001,9.66359999 C5.08080001,6.53879998 7.62240002,3.99839999 10.746,3.99839999 C13.8696,3.99839999 16.41,6.53999999 16.41,9.66359999 L16.41,14.0388 C16.41,15.852 16.8852,17.46 17.658,18.6096 L3.8328,18.6096 C4.6044,17.46 5.08080001,15.852 5.08080001,14.04 Z M10.746,22.2012 C9.66135488,22.1974804 8.71618063,21.4614679 8.44680001,20.4108 L13.0452,20.4108 C12.7754463,21.4612233 11.8304995,22.1970587 10.746,22.2012 L10.746,22.2012 Z" id="公告"></path>
                </g>
            </g>
        </g>
    </g>
</svg>