<svg width="14px" height="14px" viewBox="0 0 14 14" version="1.1" xmlns="http://www.w3.org/2000/svg" xmlns:xlink="http://www.w3.org/1999/xlink">
    <title>菜单管理</title>
    <g id="-" stroke="none" stroke-width="1" fill="none" fill-rule="evenodd">
        <g id="01工作台（一屏）" transform="translate(-30.000000, -1120.000000)" fill="currentColor" stroke="#696F7D" stroke-width="0.05">
            <path d="M35.2055465,1121 C35.5590285,1121.00037 35.8979223,1121.14098 36.1478293,1121.39097 C36.3977364,1121.64097 36.5382308,1121.9799 36.5384745,1122.33338 L36.5384745,1122.33338 L36.5384745,1125.20508 C36.5382308,1125.55856 36.3977364,1125.8975 36.1478293,1126.14749 C35.8979223,1126.39748 35.5590285,1126.5381 35.2055465,1126.53846 L35.2055465,1126.53846 L32.3329281,1126.53846 C31.979446,1126.5381 31.6405523,1126.39748 31.3906452,1126.14749 C31.1407437,1125.8975 31.0002437,1125.55856 31,1125.20508 L31,1125.20508 L31,1122.33338 C31.0002437,1121.9799 31.1407437,1121.64097 31.3906452,1121.39097 C31.6405523,1121.14098 31.979446,1121.00037 32.3329281,1121 L32.3329281,1121 Z M35.2055483,1121.92308 L32.3329262,1121.92308 C32.2241838,1121.9232 32.1199423,1121.96648 32.0430941,1122.04342 C31.966246,1122.12035 31.9230791,1122.22464 31.9230791,1122.33338 L31.9230791,1122.33338 L31.9230791,1125.20508 C31.9230791,1125.31382 31.966246,1125.41811 32.0430941,1125.49504 C32.1199423,1125.57198 32.2241838,1125.61526 32.3329262,1125.61538 L32.3329262,1125.61538 L35.2055483,1125.61538 C35.3142907,1125.61526 35.4185322,1125.57198 35.4953804,1125.49504 C35.5722286,1125.41811 35.6153955,1125.31382 35.6153955,1125.20508 L35.6153955,1125.20508 L35.6153955,1122.33338 C35.6153955,1122.22464 35.5722286,1122.12035 35.4953804,1122.04342 C35.4185322,1121.96648 35.3142907,1121.9232 35.2055483,1121.92308 L35.2055483,1121.92308 Z M41.6670719,1121 C42.020554,1121.00037 42.3594477,1121.14098 42.6093548,1121.39097 C42.8592618,1121.64097 42.9997563,1121.9799 43,1122.33338 L43,1122.33338 L43,1125.20508 C42.9997563,1125.55856 42.8592618,1125.8975 42.6093548,1126.14749 C42.3594477,1126.39748 42.020554,1126.5381 41.6670719,1126.53846 L41.6670719,1126.53846 L38.7944535,1126.53846 C38.4409715,1126.5381 38.1020777,1126.39748 37.8521707,1126.14749 C37.6022636,1125.8975 37.4617692,1125.55856 37.4615255,1125.20508 L37.4615255,1125.20508 L37.4615255,1122.33338 C37.4617692,1121.9799 37.6022636,1121.64097 37.8521707,1121.39097 C38.1020777,1121.14098 38.4409715,1121.00037 38.7944535,1121 L38.7944535,1121 Z M41.6670738,1121.92308 L38.7944517,1121.92308 C38.6857129,1121.9232 38.5814678,1121.96648 38.5046196,1122.04342 C38.4277714,1122.12035 38.3846045,1122.22464 38.3846045,1122.33338 L38.3846045,1122.33338 L38.3846045,1125.20508 C38.3846045,1125.31382 38.4277714,1125.41811 38.5046196,1125.49504 C38.5814678,1125.57198 38.6857129,1125.61526 38.7944517,1125.61538 L38.7944517,1125.61538 L41.6670738,1125.61538 C41.7758125,1125.61526 41.8800577,1125.57198 41.9569059,1125.49504 C42.033754,1125.41811 42.0769209,1125.31382 42.0769209,1125.20508 L42.0769209,1125.20508 L42.0769209,1122.33338 C42.0769209,1122.22464 42.033754,1122.12035 41.9569059,1122.04342 C41.8800577,1121.96648 41.7758125,1121.9232 41.6670738,1121.92308 L41.6670738,1121.92308 Z M41.6670719,1127.46154 C42.020554,1127.4619 42.3594477,1127.60252 42.6093548,1127.85251 C42.8592618,1128.1025 42.9997563,1128.44144 43,1128.79492 L43,1128.79492 L43,1131.66662 C42.9997563,1132.0201 42.8592618,1132.35903 42.6093548,1132.60903 C42.3594477,1132.85902 42.020554,1132.99963 41.6670719,1133 L41.6670719,1133 L38.7944535,1133 C38.4409715,1132.99963 38.1020777,1132.85902 37.8521707,1132.60903 C37.6022636,1132.35903 37.4617692,1132.0201 37.4615255,1131.66662 L37.4615255,1131.66662 L37.4615255,1128.79492 C37.4617692,1128.44144 37.6022636,1128.1025 37.8521707,1127.85251 C38.1020777,1127.60252 38.4409715,1127.4619 38.7944535,1127.46154 L38.7944535,1127.46154 Z M41.6670738,1128.38462 L38.7944517,1128.38462 C38.6857129,1128.38474 38.5814678,1128.42802 38.5046196,1128.50496 C38.4277714,1128.58189 38.3846045,1128.68618 38.3846045,1128.79492 L38.3846045,1128.79492 L38.3846045,1131.66662 C38.3846045,1131.77536 38.4277714,1131.87965 38.5046196,1131.95658 C38.5814678,1132.03352 38.6857129,1132.0768 38.7944517,1132.07692 L38.7944517,1132.07692 L41.6670738,1132.07692 C41.7758125,1132.0768 41.8800577,1132.03352 41.9569059,1131.95658 C42.033754,1131.87965 42.0769209,1131.77536 42.0769209,1131.66662 L42.0769209,1131.66662 L42.0769209,1128.79492 C42.0769209,1128.68618 42.033754,1128.58189 41.9569059,1128.50496 C41.8800577,1128.42802 41.7758125,1128.38474 41.6670738,1128.38462 L41.6670738,1128.38462 Z M35.2055465,1127.46154 C35.5590285,1127.4619 35.8979223,1127.60252 36.1478293,1127.85251 C36.3977364,1128.1025 36.5382308,1128.44144 36.5384745,1128.79492 L36.5384745,1128.79492 L36.5384745,1131.66662 C36.5382308,1132.0201 36.3977364,1132.35903 36.1478293,1132.60903 C35.8979223,1132.85902 35.5590285,1132.99963 35.2055465,1133 L35.2055465,1133 L32.3329281,1133 C31.979446,1132.99963 31.6405523,1132.85902 31.3906452,1132.60903 C31.1407437,1132.35903 31.0002437,1132.0201 31,1131.66662 L31,1131.66662 L31,1128.79492 C31.0002437,1128.44144 31.1407437,1128.1025 31.3906452,1127.85251 C31.6405523,1127.60252 31.979446,1127.4619 32.3329281,1127.46154 L32.3329281,1127.46154 Z M35.2055483,1128.38462 L32.3329262,1128.38462 C32.2241838,1128.38474 32.1199423,1128.42802 32.0430941,1128.50496 C31.966246,1128.58189 31.9230791,1128.68618 31.9230791,1128.79492 L31.9230791,1128.79492 L31.9230791,1131.66662 C31.9230791,1131.77536 31.966246,1131.87965 32.0430941,1131.95658 C32.1199423,1132.03352 32.2241838,1132.0768 32.3329262,1132.07692 L32.3329262,1132.07692 L35.2055483,1132.07692 C35.3142907,1132.0768 35.4185322,1132.03352 35.4953804,1131.95658 C35.5722286,1131.87965 35.6153955,1131.77536 35.6153955,1131.66662 L35.6153955,1131.66662 L35.6153955,1128.79492 C35.6153955,1128.68618 35.5722286,1128.58189 35.4953804,1128.50496 C35.4185322,1128.42802 35.3142907,1128.38474 35.2055483,1128.38462 L35.2055483,1128.38462 Z" id="菜单管理"></path>
        </g>
    </g>
</svg>