<svg width="15px" height="15px" viewBox="0 0 14 14" version="1.1" xmlns="http://www.w3.org/2000/svg" xmlns:xlink="http://www.w3.org/1999/xlink">
    <title>厂站管理</title>
    <g id="-" stroke="none" stroke-width="1" fill="none" fill-rule="evenodd">
        <g id="01工作台（一屏）" transform="translate(-31.000000, -1252.000000)" fill="currentColor" stroke="#696F7D" stroke-width="0.05" fill-rule="nonzero">
            <g id="厂站管理" transform="translate(31.000000, 1252.000000)">
                <path d="M11.5254545,10.9090909 L0.474545455,10.9090909 C0.212727273,10.9090909 0,10.6854546 0,10.4127273 C0,10.14 0.212727273,9.91636364 0.474545455,9.91636364 L11.5254545,9.91636364 C11.7872727,9.91636364 12,10.14 12,10.4127273 C12,10.6854546 11.7872727,10.9090909 11.5254545,10.9090909 L11.5254545,10.9090909 Z M10.4072727,9.70909092 C10.1563636,9.70909092 9.94909092,9.50727273 9.93272728,9.24545455 L9.51272727,2.55818182 L8.02363636,2.55818182 C7.76181818,2.55818182 7.54909091,2.33454546 7.54909091,2.06181818 C7.54909091,1.7890909 7.76181818,1.56545456 8.02363636,1.56545456 L9.95454545,1.56545456 C10.2054545,1.56545456 10.4127273,1.76727274 10.4290909,2.02909091 L10.8818182,9.18000001 C10.8981818,9.45272728 10.7018182,9.68727273 10.44,9.70909092 L10.4072727,9.70909092 L10.4072727,9.70909092 Z M7.40727273,9.70909092 C7.15636363,9.70909092 6.94909091,9.50727273 6.93272727,9.24545455 L6.41454546,0.992727282 L2.59090908,0.992727282 L2.06727272,9.24545455 C2.05636363,9.38181819 1.99636362,9.50727273 1.89818182,9.59454547 C1.80558179,9.67688682 1.68357871,9.71821045 1.55999999,9.70909092 C1.29818181,9.69272728 1.10181817,9.45272729 1.11818181,9.18000001 L1.66909091,0.463636368 C1.68545455,0.201818186 1.89272727,0 2.14363637,0 L6.85636364,0 C7.10727274,0 7.31454546,0.201818186 7.3309091,0.463636368 L7.88181818,9.18000001 C7.89818182,9.45272728 7.70181818,9.68727273 7.44,9.70909092 L7.40727273,9.70909092 L7.40727273,9.70909092 Z M5.54727273,7.30909092 L3.45272728,7.30909092 C3.19090909,7.30909092 2.97818182,7.08545456 2.97818182,6.81272728 C2.97818182,6.54 3.19090909,6.31636364 3.45272728,6.31636364 L5.54727273,6.31636364 C5.80909091,6.31636364 6.02181819,6.54 6.02181819,6.81272728 C6.02727274,7.08545455 5.80909091,7.30909092 5.54727273,7.30909092 Z M5.45454545,5.61818183 L3.54545454,5.61818183 C3.28363636,5.61818183 3.07090909,5.39454547 3.07090909,5.12181819 C3.07090909,4.8490909 3.28363636,4.62545456 3.54545454,4.62545456 L5.45454545,4.62545456 C5.71636363,4.62545456 5.9290909,4.84909092 5.9290909,5.12181819 C5.93454545,5.39454545 5.72181818,5.61818183 5.45454545,5.61818183 Z M5.36727273,3.92727273 L3.63818181,3.92727273 C3.37636363,3.92727273 3.16363636,3.70363637 3.16363636,3.4309091 C3.16363636,3.15818183 3.37636363,2.93454546 3.63818181,2.93454546 L5.36727273,2.93454546 C5.62909091,2.93454546 5.84181819,3.15818182 5.84181819,3.4309091 C5.84181819,3.70363638 5.62909091,3.92727273 5.36727273,3.92727273 Z" id="形状"></path>
            </g>
        </g>
    </g>
</svg>