<svg width="20px" height="20px" viewBox="0 0 20 20" version="1.1" xmlns="http://www.w3.org/2000/svg" xmlns:xlink="http://www.w3.org/1999/xlink">
    <title>投产日期</title>
    <g id="-" stroke="none" stroke-width="1" fill="none" fill-rule="evenodd">
        <g id="15厂站信息" transform="translate(-250.000000, -673.000000)" fill="#474E5F" fill-rule="nonzero">
            <g id="投产日期" transform="translate(250.000000, 673.000000)">
                <path d="M17.5217391,19.6956522 L2.47826088,19.6956522 C1.13043479,19.6956522 1.11215385e-15,18.5652174 1.11215385e-15,17.2173913 L1.11215385e-15,4.82608697 C1.11215385e-15,3.47826088 1.13043479,2.34782609 2.47826088,2.34782609 L17.5217391,2.34782609 C18.8695652,2.34782609 20,3.47826088 20,4.82608697 L20,17.1739131 C20,18.5652174 18.9130435,19.6956522 17.5217391,19.6956522 L17.5217391,19.6956522 Z M2.47826088,4.08695653 C2.08695653,4.08695653 1.73913044,4.43478262 1.73913044,4.82608697 L1.73913044,17.1739131 C1.73913044,17.5652174 2.08695653,17.9130435 2.47826088,17.9130435 L17.5217391,17.9130435 C17.9130435,17.9130435 18.2608696,17.5652174 18.2608696,17.1739131 L18.2608696,4.82608697 C18.2608696,4.43478262 17.9130435,4.08695653 17.5217391,4.08695653 L2.47826088,4.08695653 Z" id="形状"></path>
                <path d="M4.21739132,10.3043478 C4.21739132,10.7365707 4.56777717,11.0869565 5.00000002,11.0869565 C5.43222286,11.0869565 5.78260871,10.7365707 5.78260871,10.3043478 C5.78260871,9.87212499 5.43222286,9.52173914 5.00000002,9.52173914 C4.56777717,9.52173914 4.21739132,9.87212499 4.21739132,10.3043478 L4.21739132,10.3043478 Z" id="路径"></path>
                <path d="M9.2173913,10.3043478 C9.2173913,10.7365707 9.56777715,11.0869565 10,11.0869565 C10.4322228,11.0869565 10.7826087,10.7365707 10.7826087,10.3043478 C10.7826087,9.87212499 10.4322228,9.52173914 10,9.52173914 C9.56777715,9.52173914 9.2173913,9.87212499 9.2173913,10.3043478 L9.2173913,10.3043478 Z" id="路径"></path>
                <path d="M14.2608696,10.3043478 C14.2608696,10.7365707 14.6112554,11.0869565 15.0434783,11.0869565 C15.4757011,11.0869565 15.826087,10.7365707 15.826087,10.3043478 C15.826087,9.87212499 15.4757011,9.52173914 15.0434783,9.52173914 C14.6112554,9.52173914 14.2608696,9.87212499 14.2608696,10.3043478 Z" id="路径"></path>
                <path d="M4.21739132,14.4782609 C4.21739132,14.9104837 4.56777717,15.2608696 5.00000002,15.2608696 C5.43222286,15.2608696 5.78260871,14.9104837 5.78260871,14.4782609 C5.78260871,14.046038 5.43222286,13.6956522 5.00000002,13.6956522 C4.56777717,13.6956522 4.21739132,14.046038 4.21739132,14.4782609 L4.21739132,14.4782609 Z" id="路径"></path>
                <path d="M9.2173913,14.4782609 C9.2173913,14.9104837 9.56777715,15.2608696 10,15.2608696 C10.4322228,15.2608696 10.7826087,14.9104837 10.7826087,14.4782609 C10.7826087,14.046038 10.4322228,13.6956522 10,13.6956522 C9.56777715,13.6956522 9.2173913,14.046038 9.2173913,14.4782609 L9.2173913,14.4782609 Z" id="路径"></path>
                <path d="M14.2608696,14.4782609 C14.2608696,14.9104837 14.6112554,15.2608696 15.0434783,15.2608696 C15.4757011,15.2608696 15.826087,14.9104837 15.826087,14.4782609 C15.826087,14.046038 15.4757011,13.6956522 15.0434783,13.6956522 C14.6112554,13.6956522 14.2608696,14.046038 14.2608696,14.4782609 Z" id="路径"></path>
                <path d="M6.78260871,6.52173912 C6.30434785,6.52173912 5.91304347,6.13043477 5.91304347,5.65217392 L5.91304347,0.869565204 C5.91304347,0.391304348 6.30434782,0 6.78260871,0 C7.26086959,0 7.65217391,0.391304348 7.65217391,0.869565204 L7.65217391,5.65217392 C7.65217391,6.13043477 7.26086956,6.52173912 6.78260871,6.52173912 L6.78260871,6.52173912 Z M13.2608696,6.52173912 C12.7826087,6.52173912 12.3913043,6.13043477 12.3913043,5.65217392 L12.3913043,0.869565204 C12.3913043,0.391304348 12.7826087,0 13.2608696,0 C13.7391305,0 14.1304348,0.391304348 14.1304348,0.869565204 L14.1304348,5.65217392 C14.1304348,6.13043477 13.7391304,6.52173912 13.2608696,6.52173912 L13.2608696,6.52173912 Z" id="形状"></path>
            </g>
        </g>
    </g>
</svg>